<?xml version="1.0" encoding="UTF-8"?>
<svg id="Capa_2" data-name="Capa 2" xmlns="http://www.w3.org/2000/svg" viewBox="0 0 90 90">
  <defs>
    <style>
      .cls-1 {
        fill: #f3f4f6;
      }
    </style>
  </defs>
  <g id="Capa_1-2" data-name="Capa 1">
    <path class="cls-1" d="m13.13,6.87l15.86,16.31c5.06,5.2,10.11,10.4,15.17,15.6.11.08.38.24.77.26.46.02.79-.18.89-.26,10.34-10.64,20.68-21.28,31.02-31.91v-1.79c-.16-.63-.57-1.88-1.66-3.06-1.25-1.36-2.69-1.85-3.32-2.02-.72.08-1.45.16-2.17.23-.07.28-23.92,19.27-24.26,19.28-.29,0-25.38-18.56-25.4-18.64-.6-.29-1.19-.58-1.79-.87-.83.37-2.02,1.03-3.19,2.15-.9.87-1.51,1.74-1.91,2.43v2.3Z"/>
    <path class="cls-1" d="m6.87,76.85l16.31-15.86c5.2-5.06,10.4-10.11,15.6-15.17.08-.11.24-.38.26-.77.02-.46-.18-.79-.26-.89-10.64-10.34-21.28-20.68-31.91-31.02h-1.79c-.63.16-1.88.57-3.06,1.66-1.36,1.25-1.85,2.69-2.02,3.32.08.72.16,1.45.23,2.17.28.07,19.27,23.92,19.28,24.26,0,.29-18.56,25.38-18.64,25.4-.29.6-.58,1.19-.87,1.79.37.83,1.03,2.02,2.15,3.19.87.9,1.74,1.51,2.43,1.91h2.3Z"/>
    <path class="cls-1" d="m76.31,83.13l-15.86-16.31c-5.06-5.2-10.11-10.4-15.17-15.6-.11-.08-.38-.24-.77-.26-.46-.02-.79.18-.89.26-10.34,10.64-20.68,21.28-31.02,31.91v1.15c0,.21,0,.43,0,.64.16.63.57,1.88,1.66,3.06,1.25,1.36,2.69,1.85,3.32,2.02.72-.08,1.45-.16,2.17-.23.07-.28,23.92-19.27,24.26-19.28.29,0,25.38,18.56,25.4,18.64.6.29,1.19.58,1.79.87.83-.37,2.02-1.03,3.19-2.15.9-.87,1.51-1.74,1.91-2.43v-2.3Z"/>
    <path class="cls-1" d="m83.13,13.15l-16.31,15.86c-5.2,5.06-10.4,10.11-15.6,15.17-.08.11-.24.38-.26.77-.02.46.18.79.26.89,10.64,10.34,21.28,20.68,31.91,31.02h1.15c.21,0,.43,0,.64,0,.63-.16,1.88-.57,3.06-1.66,1.36-1.25,1.85-2.69,2.02-3.32-.08-.72-.16-1.45-.23-2.17-.28-.07-19.27-23.92-19.28-24.26,0-.29,18.56-25.38,18.64-25.4.29-.6.58-1.19.87-1.79-.37-.83-1.03-2.02-2.15-3.19-.87-.9-1.74-1.51-2.43-1.91h-2.3Z"/>
  </g>
</svg>